<svg width="57" height="52" viewBox="0 0 57 52" fill="none" xmlns="http://www.w3.org/2000/svg">
<path d="M0 26.0006C8.66562 17.3325 17.3325 8.66562 26.0006 0C31.1285 5.12854 36.2577 10.2564 41.3856 15.385C41.4241 15.4317 41.4576 15.4822 41.4866 15.5365C41.039 15.9714 40.6066 16.4216 40.1609 16.8584C40.1123 16.907 40.0713 16.9613 40.0378 17.0206C40.0164 17.02 39.9734 17.0194 39.9526 17.0194C35.2982 12.3725 30.6519 7.71869 26 3.07056C18.3558 10.7129 10.7122 18.3558 3.06993 26.0006C10.7135 33.6436 18.3564 41.2878 26 48.9301C30.6677 44.2617 35.3373 39.5953 40.0031 34.9251C40.034 34.9295 40.0965 34.939 40.1275 34.944C40.6098 35.4364 41.1028 35.9187 41.5895 36.4073C36.3966 41.6085 31.1961 46.802 26 52C17.3325 43.3344 8.66625 34.6675 0 26.0006Z" fill="#444444"/>
<path d="M37.6393 21.4811C38.5344 21.3883 39.4921 21.4931 40.2591 21.9975C41.0488 22.4974 41.5375 23.3623 41.7527 24.2543C41.9819 25.1804 41.9996 26.15 41.8948 27.0951C41.7742 28.1032 41.4017 29.1348 40.6227 29.8216C39.9378 30.4421 38.9833 30.6745 38.0768 30.6404C37.1039 30.6423 36.1002 30.273 35.4696 29.5104C34.7202 28.6139 34.4829 27.4082 34.4557 26.2687C34.4292 25.0447 34.5978 23.7341 35.3553 22.7297C35.8894 22.0044 36.7504 21.5675 37.6393 21.4811ZM37.9133 23.017C37.4133 23.0788 36.9676 23.3976 36.7189 23.8313C36.3123 24.5478 36.2725 25.402 36.2782 26.2069C36.3029 27.0155 36.4158 27.8924 36.948 28.5388C37.6153 29.3544 39.0559 29.2629 39.6266 28.3804C40.1152 27.631 40.1335 26.6923 40.1291 25.8275C40.0969 25.0251 39.9763 24.1539 39.4391 23.5207C39.071 23.0826 38.4631 22.9343 37.9133 23.017Z" fill="#444444"/>
<path d="M43.1907 21.7109C44.1066 21.5524 45.0378 21.4849 45.967 21.5038C46.6842 21.5354 47.4278 21.6446 48.0496 22.0278C48.5869 22.3541 48.9568 22.9355 49.0231 23.5618C49.102 24.3149 49.0067 25.133 48.5465 25.7586C48.2302 26.2031 47.7599 26.5155 47.2511 26.698C47.2466 26.7049 47.2391 26.7188 47.2353 26.7258C47.4316 26.8811 47.6892 26.9619 47.8508 27.1569C48.5098 28.2604 49.1733 29.3614 49.8311 30.4661C49.1626 30.4667 48.4941 30.4661 47.8255 30.4661C47.1589 29.3159 46.4897 28.1676 45.8263 27.0155C45.5245 26.9549 45.2209 26.9044 44.9178 26.8495C44.9185 28.0546 44.9178 29.2597 44.9185 30.4655C44.3415 30.4655 43.7645 30.4699 43.1875 30.463C43.1932 27.5458 43.1881 24.628 43.1907 21.7109ZM44.9242 23.0959C44.9103 23.9532 44.921 24.8111 44.9191 25.6684C45.5264 25.6557 46.1975 25.7422 46.7303 25.3843C47.1949 25.0851 47.2782 24.4626 47.1993 23.9582C47.1261 23.4999 46.7233 23.1521 46.2738 23.0839C45.8282 23.0151 45.3711 23.0466 44.9242 23.0959Z" fill="#444444"/>
<path d="M20.8438 21.63C22.5905 21.6262 24.3366 21.6306 26.0828 21.6281C26.0853 22.1413 26.084 22.6546 26.0834 23.1678C24.9117 23.1722 23.7401 23.1583 22.5684 23.1748C22.5785 23.8584 22.5691 24.5427 22.5735 25.2271C23.6366 25.2233 24.6996 25.2327 25.7627 25.2226C25.7747 25.7371 25.7659 26.2516 25.7678 26.7661C24.7028 26.7661 23.6378 26.7642 22.5728 26.7674C22.5709 27.4852 22.576 28.2036 22.5697 28.922C23.7622 28.9352 24.9547 28.9245 26.1465 28.9276C26.1446 29.4415 26.1529 29.956 26.1421 30.4705C24.3764 30.461 22.6101 30.4711 20.8444 30.4654C20.8444 27.5205 20.8444 24.5749 20.8438 21.63Z" fill="#444444"/>
<path d="M27.0566 21.6289C27.756 21.6283 28.4555 21.6258 29.1543 21.6302C29.5602 22.3985 29.9718 23.1629 30.3815 23.9287C30.5835 24.269 30.658 24.6629 30.8032 25.0271C30.9591 24.7083 31.0002 24.3447 31.1744 24.0341C31.627 23.2336 32.0733 22.43 32.5241 21.6283C33.1535 21.6283 33.7835 21.627 34.4135 21.6289C33.5651 23.0474 32.7141 24.4647 31.8644 25.8831C32.7558 27.4108 33.6496 28.9373 34.5391 30.4656C33.8491 30.4669 33.1591 30.4663 32.4691 30.4663C31.9679 29.5856 31.466 28.705 30.9661 27.8237C30.8108 27.5011 30.7148 27.1539 30.5842 26.8219C30.4257 27.2196 30.3373 27.6495 30.1037 28.0144C29.6316 28.8312 29.1644 29.6506 28.6916 30.4675C28.0622 30.465 27.4334 30.4675 26.8047 30.4656C27.7062 28.9657 28.6146 27.4702 29.516 25.9703C28.696 24.5234 27.876 23.0765 27.0566 21.6289Z" fill="#444444"/>
<path d="M50.7973 21.6281C52.5441 21.6275 54.2902 21.6275 56.037 21.6281C56.037 22.1414 56.0376 22.654 56.0363 23.1672C54.8659 23.1666 53.6962 23.1666 52.5258 23.1672C52.5233 23.8521 52.5296 24.5365 52.522 25.2214C53.5882 25.2334 54.6551 25.222 55.7213 25.2265C55.7213 25.7397 55.722 26.2523 55.7207 26.7655C54.6557 26.7649 53.5908 26.7649 52.5258 26.7655C52.5252 27.4858 52.5252 28.2061 52.5258 28.9264C53.717 28.9277 54.9082 28.9271 56.0995 28.9271C56.1007 29.4397 56.1001 29.9529 56.1001 30.4661C54.3325 30.4668 52.5649 30.4668 50.7973 30.4661C50.7967 27.5199 50.7967 24.5743 50.7973 21.6281Z" fill="#444444"/>
</svg>
