<svg width="28" height="24" viewBox="0 0 28 24" fill="none" xmlns="http://www.w3.org/2000/svg">
<path d="M15.9871 23.0289C18.161 23.0288 20.2863 22.3854 22.0953 21.1797C23.9042 19.974 25.3159 18.26 26.1526 16.2535C26.9893 14.247 27.2135 12.0378 26.797 9.90416C26.3805 7.7705 25.3419 5.80781 23.812 4.26329C22.2822 2.71878 20.3295 1.66151 18.1999 1.22467C16.0703 0.78783 13.8591 0.990947 11.8447 1.80844C9.83032 2.62593 8.1029 4.02124 6.88002 5.81861C5.65715 7.61598 4.99349 9.73504 4.97266 11.9089" stroke="#AAAAAA" stroke-width="1.2"/>
<path d="M1 7.15326L4.96138 12.3262L10.1343 8.36982" stroke="#AAAAAA" stroke-width="1.2"/>
<path d="M15.6602 3.62421V12.8289L19.8377 16.0312" stroke="#AAAAAA" stroke-width="1.2"/>
</svg>
