<svg width="28" height="26" viewBox="0 0 28 26" fill="none" xmlns="http://www.w3.org/2000/svg">
<path d="M14.2766 1.22252L18.0603 8.72909C18.0825 8.77365 18.1153 8.81208 18.1558 8.84101C18.1963 8.86994 18.2433 8.8885 18.2926 8.89504L26.723 10.0954C26.7838 10.1029 26.8411 10.1279 26.888 10.1674C26.9348 10.2068 26.9691 10.2591 26.9867 10.3178C27.0043 10.3765 27.0044 10.439 26.9871 10.4978C26.9697 10.5565 26.9356 10.6089 26.889 10.6486L20.804 16.4569C20.7669 16.4929 20.7394 16.5375 20.724 16.5867C20.7085 16.636 20.7056 16.6884 20.7155 16.739L22.1538 24.9703C22.1646 25.0275 22.159 25.0865 22.1378 25.1407C22.1166 25.1949 22.0805 25.242 22.0338 25.2767C21.987 25.3113 21.9314 25.3321 21.8734 25.3366C21.8154 25.3411 21.7573 25.3292 21.7057 25.3022L14.1438 21.43C14.0991 21.408 14.0499 21.3966 14 21.3966C13.9501 21.3966 13.9009 21.408 13.8562 21.43L6.29429 25.3022C6.24273 25.3292 6.18461 25.3411 6.12659 25.3366C6.06857 25.3321 6.01299 25.3113 5.96623 25.2767C5.91947 25.242 5.88341 25.1949 5.86218 25.1407C5.84095 25.0865 5.83542 25.0275 5.84622 24.9703L7.28447 16.739C7.2944 16.6884 7.2915 16.636 7.27605 16.5867C7.26059 16.5375 7.23306 16.4929 7.19596 16.4569L1.11105 10.6375C1.06438 10.5979 1.03028 10.5454 1.01292 10.4867C0.995566 10.4279 0.995695 10.3654 1.0133 10.3067C1.0309 10.2481 1.06521 10.1958 1.11204 10.1563C1.15887 10.1168 1.21619 10.0918 1.277 10.0844L9.71843 8.88398C9.76778 8.87743 9.81477 8.85888 9.85527 8.82995C9.89578 8.80101 9.92857 8.76258 9.95077 8.71803L13.7234 1.22252C13.7492 1.17132 13.7888 1.12829 13.8376 1.09823C13.8864 1.06816 13.9427 1.05225 14 1.05225C14.0573 1.05225 14.1136 1.06816 14.1624 1.09823C14.2112 1.12829 14.2508 1.17132 14.2766 1.22252V1.22252Z" stroke="#AAAAAA" stroke-width="1.2"/>
</svg>
