<svg width="28" height="29" viewBox="0 0 28 29" fill="none" xmlns="http://www.w3.org/2000/svg">
<path d="M16.362 25.8802H2.262C1.93118 25.8789 1.61396 25.7483 1.37815 25.5163C1.14233 25.2842 1.00661 24.9692 1 24.6384V4.42613C1 4.09142 1.13296 3.77043 1.36963 3.53376C1.6063 3.29708 1.9273 3.16412 2.262 3.16412H22.454C22.7887 3.16412 23.1097 3.29708 23.3464 3.53376C23.5831 3.77043 23.716 4.09142 23.716 4.42613V15.7791" stroke="#AAAAAA" stroke-width="1.2"/>
<path d="M1 8.73926H23.716" stroke="#AAAAAA" stroke-width="1.2"/>
<path d="M6.125 3.16414V0.630005" stroke="#AAAAAA" stroke-width="1.2"/>
<path d="M18.2656 3.16414V0.630005" stroke="#AAAAAA" stroke-width="1.2"/>
<path d="M20.6983 27.6135C24.1776 27.6135 26.9982 24.793 26.9982 21.3137C26.9982 17.8343 24.1776 15.0138 20.6983 15.0138C17.219 15.0138 14.3984 17.8343 14.3984 21.3137C14.3984 24.793 17.219 27.6135 20.6983 27.6135Z" stroke="#AAAAAA" stroke-width="1.2"/>
<path d="M20.6992 16.884V21.5062L22.9039 23.199" stroke="#AAAAAA" stroke-width="1.2"/>
</svg>
