<svg width="87" height="80" viewBox="0 0 87 80" fill="none" xmlns="http://www.w3.org/2000/svg">
<path d="M0 40.001C13.3317 26.6654 26.6654 13.3317 40.001 0C47.8901 7.89006 55.7811 15.7791 63.6702 23.6692C63.7294 23.7411 63.7809 23.8188 63.8256 23.9023C63.137 24.5715 62.4717 25.2639 61.786 25.936C61.7113 26.0108 61.6481 26.0943 61.5967 26.1856C61.5636 26.1846 61.4976 26.1837 61.4656 26.1837C54.3049 19.0346 47.1568 11.8749 40 4.72394C28.2397 16.4813 16.4804 28.2397 4.72296 40.001C16.4823 51.7593 28.2407 63.5196 40 75.277C47.1811 68.095 54.3651 60.9158 61.5432 53.7309C61.5908 53.7377 61.687 53.7522 61.7346 53.76C62.4766 54.5176 63.2351 55.2596 63.9839 56.0113C55.9948 64.013 47.994 72.0031 40 80C26.6654 66.6683 13.3327 53.3346 0 40.001Z" fill="#CCCCCC"/>
<path d="M57.9057 33.0478C59.2828 32.9051 60.7562 33.0663 61.9362 33.8423C63.1512 34.6115 63.9029 35.942 64.2341 37.3143C64.5866 38.7391 64.6138 40.2309 64.4526 41.6848C64.2671 43.2358 63.6941 44.8227 62.4956 45.8794C61.4418 46.8341 59.9734 47.1915 58.5787 47.1391C57.0821 47.142 55.5379 46.5738 54.5676 45.4006C53.4148 44.0215 53.0497 42.1665 53.0079 40.4135C52.9671 38.5303 53.2264 36.5141 54.3919 34.9689C55.2135 33.853 56.5382 33.1809 57.9057 33.0478ZM58.3272 35.4108C57.558 35.506 56.8723 35.9964 56.4897 36.6636C55.8642 37.7659 55.803 39.08 55.8118 40.3183C55.8496 41.5624 56.0235 42.9114 56.8422 43.9059C57.8688 45.1607 60.0851 45.0199 60.963 43.6621C61.7147 42.5093 61.7429 41.0651 61.7361 39.7346C61.6866 38.5002 61.5011 37.1599 60.6746 36.1858C60.1084 35.5118 59.1731 35.2835 58.3272 35.4108Z" fill="#CCCCCC"/>
<path d="M66.4502 33.4015C67.8594 33.1577 69.2919 33.0538 70.7215 33.0829C71.8248 33.1315 72.9689 33.2995 73.9255 33.889C74.752 34.3911 75.3211 35.2856 75.4231 36.249C75.5445 37.4077 75.3979 38.6664 74.6899 39.6288C74.2033 40.3125 73.4797 40.7933 72.6969 41.074C72.6901 41.0846 72.6785 41.106 72.6727 41.1167C72.9747 41.3556 73.371 41.4799 73.6196 41.78C74.6335 43.4777 75.6543 45.1715 76.6663 46.8711C75.6378 46.8721 74.6092 46.8711 73.5807 46.8711C72.5552 45.1015 71.5257 43.3349 70.5049 41.5625C70.0407 41.4692 69.5736 41.3916 69.1074 41.3071C69.1083 43.1611 69.1074 45.0151 69.1084 46.8701C68.2207 46.8701 67.333 46.8769 66.4453 46.8662C66.4541 42.3783 66.4463 37.8894 66.4502 33.4015ZM69.1171 35.5323C69.0957 36.8512 69.1122 38.171 69.1093 39.4899C70.0436 39.4705 71.076 39.6036 71.8957 39.0529C72.6105 38.5925 72.7387 37.6349 72.6173 36.8589C72.5046 36.1538 71.885 35.6187 71.1935 35.5138C70.5079 35.408 69.8047 35.4565 69.1171 35.5323Z" fill="#CCCCCC"/>
<path d="M32.0664 33.2768C34.7537 33.271 37.4401 33.2778 40.1265 33.2739C40.1303 34.0635 40.1284 34.8531 40.1274 35.6427C38.3249 35.6495 36.5223 35.6281 34.7197 35.6534C34.7353 36.7052 34.7207 37.758 34.7275 38.8108C36.363 38.8049 37.9985 38.8195 39.634 38.804C39.6525 39.5955 39.6389 40.387 39.6418 41.1786C38.0034 41.1786 36.365 41.1756 34.7265 41.1805C34.7236 42.2848 34.7314 43.39 34.7217 44.4952C36.5563 44.5156 38.3909 44.4991 40.2245 44.504C40.2216 45.2945 40.2343 46.0861 40.2177 46.8776C37.5013 46.863 34.7838 46.8786 32.0674 46.8698C32.0674 42.3391 32.0674 37.8075 32.0664 33.2768Z" fill="#CCCCCC"/>
<path d="M41.6258 33.2754C42.7019 33.2745 43.778 33.2706 44.8531 33.2774C45.4776 34.4593 46.1108 35.6354 46.7411 36.8135C47.0519 37.337 47.1665 37.943 47.3899 38.5034C47.6297 38.013 47.6929 37.4535 47.9609 36.9757C48.6573 35.7442 49.3439 34.5079 50.0373 33.2745C51.0056 33.2745 51.9749 33.2725 52.9441 33.2754C51.6388 35.4577 50.3297 37.6381 49.0224 39.8204C50.3938 42.1707 51.769 44.5191 53.1374 46.8703C52.0759 46.8723 51.0144 46.8713 49.9528 46.8713C49.1817 45.5165 48.4096 44.1617 47.6404 42.8058C47.4015 42.3096 47.2539 41.7754 47.0528 41.2645C46.8091 41.8764 46.6731 42.5378 46.3138 43.0991C45.5873 44.3559 44.8686 45.6165 44.1412 46.8733C43.1729 46.8694 42.2056 46.8733 41.2383 46.8703C42.6252 44.5628 44.0227 42.262 45.4096 39.9544C44.148 37.7284 42.8864 35.5024 41.6258 33.2754Z" fill="#CCCCCC"/>
<path d="M78.1492 33.2742C80.8365 33.2732 83.5228 33.2732 86.2101 33.2742C86.2101 34.0638 86.2111 34.8524 86.2092 35.642C84.4085 35.641 82.6089 35.641 80.8083 35.642C80.8044 36.6957 80.8141 37.7485 80.8025 38.8023C82.4428 38.8208 84.0842 38.8033 85.7245 38.8101C85.7245 39.5997 85.7255 40.3883 85.7236 41.1779C84.0851 41.1769 82.4467 41.1769 80.8083 41.1779C80.8073 42.286 80.8073 43.3942 80.8083 44.5023C82.641 44.5043 84.4736 44.5033 86.3063 44.5033C86.3082 45.2919 86.3072 46.0815 86.3072 46.8711C83.5879 46.8721 80.8685 46.8721 78.1492 46.8711C78.1482 42.3385 78.1482 37.8068 78.1492 33.2742Z" fill="#CCCCCC"/>
</svg>
