<svg width="14" height="9" viewBox="0 0 14 9" fill="none" xmlns="http://www.w3.org/2000/svg">
<path d="M7.17812 0C4.53437 0 2.22812 1.63125 1.10312 3.99375C0.934375 4.33125 0.934375 4.725 1.10312 5.0625C2.22812 7.36875 4.53437 9 7.17812 9C9.82187 9 12.1281 7.36875 13.2531 5.00625C13.4219 4.66875 13.4219 4.275 13.2531 3.9375C12.1281 1.63125 9.82187 0 7.17812 0ZM7.17812 6.75C5.94062 6.75 4.92812 5.7375 4.92812 4.5C4.92812 3.2625 5.94062 2.25 7.17812 2.25C8.41562 2.25 9.42812 3.2625 9.42812 4.5C9.42812 5.7375 8.41562 6.75 7.17812 6.75Z" fill="white"/>
</svg>
