<svg width="10" height="10" viewBox="0 0 10 10" fill="none" xmlns="http://www.w3.org/2000/svg">
<path fill-rule="evenodd" clip-rule="evenodd" d="M0 2.50031C0 2.03992 0.373318 1.6666 0.833299 1.6666H1.6666V0.833299C1.6666 0.603308 1.85284 0 2.08325 0H2.91655C3.14695 0 3.33319 0.603308 3.33319 0.833299V1.6666H6.66639V0.833299C6.66639 0.603308 6.85263 0 7.08304 0H7.91634C8.14674 0 8.33299 0.603308 8.33299 0.833299V1.6666H9.16628C9.62627 1.6666 9.99958 2.03992 9.99958 2.50031V3.33319H0V2.50031ZM9.99958 4.16691V9.58293C9.99958 9.58293 9.78251 10 9.16628 10H0.833299C0.177909 10 0 9.58293 0 9.58293V4.16691H9.99958Z" fill="white"/>
</svg>
