<svg width="24" height="24" viewBox="0 0 24 24" fill="none" xmlns="http://www.w3.org/2000/svg">
<path d="M5.75151 5.11597C5.64766 5.11934 5.54554 5.14352 5.4512 5.18707C5.35685 5.23061 5.27221 5.29265 5.20227 5.36949C5.13234 5.44634 5.07853 5.53644 5.04404 5.63446C5.00955 5.73247 4.99507 5.83641 5.00147 5.94012C5.10523 7.71886 5.59439 12.059 7.93639 14.7656C10.7409 18.0266 14.3932 19.1502 18.1404 18.9842C18.3413 18.9722 18.5301 18.8844 18.6688 18.7386C18.8074 18.5928 18.8856 18.3998 18.8875 18.1986V15.3496C18.8851 15.0838 18.7936 14.8265 18.6274 14.619C18.4613 14.4115 18.2303 14.2658 17.9714 14.2053L16.0949 13.7903C15.8628 13.7408 15.6212 13.7621 15.4013 13.8514C15.1814 13.9407 14.9934 14.094 14.8616 14.2913L14.4466 14.9198C14.4085 14.9773 14.3515 15.0197 14.2855 15.0397C14.2195 15.0598 14.1485 15.0561 14.0849 15.0295C13.1303 14.6174 9.32677 12.8387 8.90877 9.83852C8.90058 9.78058 8.90972 9.72151 8.93504 9.66875C8.96037 9.616 9.00074 9.57192 9.05107 9.54206L9.80406 9.08256C10.0106 8.95456 10.1728 8.7662 10.2688 8.54297C10.3648 8.31974 10.3899 8.07242 10.3406 7.83447L9.92858 5.9253C9.86833 5.6578 9.71725 5.41944 9.50104 5.2508C9.28484 5.08216 9.01687 4.99365 8.74275 5.00035L5.75151 5.11597Z" stroke="white" stroke-width="1.2"/>
</svg>
