<svg width="71" height="59" viewBox="0 0 71 59" fill="none" xmlns="http://www.w3.org/2000/svg">
<path opacity="0.2" d="M15.8136 58.6785C10.9727 58.6785 7.1 56.9101 4.19545 53.3733C1.39848 49.7293 0 45.4423 0 40.5123C0 36.4396 0.75303 32.6349 2.25909 29.0981C3.76515 25.5613 5.64773 22.346 7.90682 19.4523C10.2735 16.5586 12.7477 14.04 15.3295 11.8965C18.0189 9.64578 20.4932 7.77021 22.7523 6.26975C25.0114 4.66213 26.8402 3.4832 28.2386 2.73297C29.7447 1.98274 30.4439 1.60763 30.3364 1.60763L34.0477 6.59128C33.0795 7.01998 31.7886 7.87738 30.175 9.16349C28.5614 10.3424 26.9477 11.7893 25.3341 13.5041C23.828 15.2189 22.4833 17.0945 21.3 19.1308C20.1167 21.0599 19.525 22.9355 19.525 24.7575C19.525 25.8292 20.1705 26.901 21.4614 27.9728C22.7523 28.9373 24.1508 30.1163 25.6568 31.5095C27.1629 32.7956 28.5614 34.4033 29.8523 36.3324C31.1432 38.1544 31.7886 40.4051 31.7886 43.0845C31.7886 45.4423 31.3045 47.5858 30.3364 49.515C29.4758 51.4441 28.2924 53.1054 26.7864 54.4986C25.3879 55.7847 23.7205 56.8029 21.7841 57.5531C19.8477 58.3034 17.8576 58.6785 15.8136 58.6785ZM55.5091 59C53.0348 59 50.7758 58.4641 48.7318 57.3924C46.6879 56.3206 44.9129 54.8737 43.4068 53.0518C41.9008 51.2298 40.7174 49.1399 39.8568 46.782C39.1038 44.317 38.7273 41.6912 38.7273 38.9046C38.7273 33.3315 39.9106 28.1871 42.2773 23.4714C44.7515 18.6485 47.4409 14.5223 50.3455 11.0926C53.7879 7.01998 57.7144 3.32243 62.125 0L66.8045 4.3406C65.8364 4.98365 64.653 6.00182 63.2545 7.39509C61.9636 8.78837 60.7265 10.4496 59.5432 12.3787C58.4674 14.2007 57.4992 16.1299 56.6386 18.1662C55.8856 20.2025 55.5091 22.1853 55.5091 24.1144C55.5091 25.4005 56.3159 26.4723 57.9295 27.3297C59.5432 28.1871 61.3182 29.2589 63.2545 30.545C65.1909 31.8311 66.9659 33.4923 68.5795 35.5286C70.1932 37.4578 71 40.1907 71 43.7275C71 45.871 70.5697 47.8538 69.7091 49.6757C68.8485 51.4977 67.6651 53.1054 66.1591 54.4986C64.7606 55.8919 63.0932 57.0173 61.1568 57.8747C59.328 58.6249 57.4455 59 55.5091 59Z" fill="#0055E9"/>
</svg>
